# xmcd
#
# Track frame offsets: 
#        150
#        13711
#        23570
#        41237
#        51233
#        64801
#        83424
#        98249
#        111497
#        133321
#        146548
#        162693
#        182163
#
# Disc length: 3843 seconds
#
# Revision: 0
# Processed by: cddbd v1.5.2PL0 Copyright (c) Steve Scherf et al.
# Submitted via: ExactAudioCopyFreeDBPlugin 1.0
#
DISCID=b90f010d
DTITLE=MAG'Grass - MAG'Grass
DYEAR=2013
DGENRE=Country
TTITLE0=Thibodaux
TTITLE1=Blue Night
TTITLE2=Burn Me Beneath the Weeping Willow
TTITLE3=Where the Rainbow Finds Its End
TTITLE4=The Bottle Let Me Down
TTITLE5=Drinking Dark Whiskey
TTITLE6=In the Palm of Your Hand
TTITLE7=Everybody Wants to Go to Heaven
TTITLE8=Wildflowers
TTITLE9=Another Love Song
TTITLE10=Honky Tonk Angels
TTITLE11=Babylon's Falling
TTITLE12=video
EXTD=
EXTT0=
EXTT1=
EXTT2=
EXTT3=
EXTT4=
EXTT5=
EXTT6=
EXTT7=
EXTT8=
EXTT9=
EXTT10=
EXTT11=
EXTT12=
PLAYORDER=
